<?xml version="1.0" standalone="no"?>
<!DOCTYPE svg PUBLIC "-//W3C//DTD SVG 20010904//EN"
 "http://www.w3.org/TR/2001/REC-SVG-20010904/DTD/svg10.dtd">
<svg version="1.0" xmlns="http://www.w3.org/2000/svg"
 width="570.000000pt" height="565.000000pt" viewBox="0 0 570.000000 565.000000"
 preserveAspectRatio="xMidYMid meet">
<metadata>
Created by potrace 1.16, written by Peter Selinger 2001-2019
</metadata>
<g transform="translate(0.000000,565.000000) scale(0.100000,-0.100000)"
fill="#000000" stroke="none">
<path d="M0 5605 l0 -45 173 0 c239 0 968 19 997 26 30 7 1627 24 2025 22 154
-1 318 -2 365 -2 1409 6 1834 5 1973 -1 l167 -8 0 26 0 27 -2850 0 -2850 0 0
-45z"/>
<path d="M3000 5321 c-25 -4 -55 -12 -67 -19 -12 -7 -57 -12 -100 -12 -91 -1
-136 -15 -196 -60 -42 -33 -146 -157 -158 -189 -4 -10 -25 -23 -47 -29 -50
-15 -59 -27 -63 -80 -4 -46 17 -71 44 -56 6 4 -4 -9 -22 -29 -19 -21 -31 -37
-27 -37 4 0 -2 -12 -13 -26 -12 -15 -21 -33 -21 -41 0 -18 -31 -73 -42 -73 -4
0 -4 7 -1 17 4 11 3 14 -5 9 -28 -17 -9 19 34 64 26 28 43 50 37 50 -15 0 -81
-73 -92 -101 -7 -21 -15 -26 -34 -22 -25 5 -95 -25 -114 -49 -21 -27 -21 -58
1 -90 39 -58 42 -65 24 -50 -14 11 -16 7 -14 -32 1 -28 8 -52 20 -65 19 -21
18 -21 -28 -64 -28 -27 -46 -52 -46 -66 0 -15 -4 -20 -12 -15 -7 4 -2 -9 9
-29 13 -21 18 -39 12 -42 -5 -4 -9 -11 -9 -16 0 -6 5 -7 10 -4 6 3 10 2 10 -2
0 -12 -22 -33 -34 -33 -6 0 -4 5 4 11 11 7 12 12 3 15 -7 3 -9 13 -6 22 6 15
5 15 -10 3 -9 -7 -15 -17 -12 -21 3 -4 -3 -14 -12 -21 -15 -12 -16 -11 -11 9
4 12 2 22 -2 22 -10 0 -18 -98 -9 -111 3 -6 12 -9 20 -7 10 2 14 -6 13 -27 0
-19 8 -38 23 -52 20 -19 27 -21 53 -11 17 6 34 8 37 4 4 -3 -1 -6 -10 -6 -9 0
-17 -4 -17 -10 0 -5 4 -10 10 -10 5 0 0 -16 -11 -35 -20 -34 -15 -47 9 -23 8
8 12 8 12 1 0 -6 8 -13 19 -16 13 -3 20 -16 23 -45 4 -49 -11 -57 -57 -30 -34
20 -60 24 -49 7 4 -7 1 -10 -7 -7 -8 3 -14 11 -14 19 0 8 -6 14 -13 14 -7 0
-22 11 -32 25 -11 14 -20 20 -20 15 0 -6 13 -27 29 -46 28 -34 121 -79 163
-79 9 0 31 -15 50 -32 30 -28 35 -38 31 -68 -4 -28 2 -44 27 -78 l31 -43 -30
15 c-16 9 -31 21 -34 28 -4 9 -6 9 -6 1 -1 -6 13 -23 30 -37 17 -15 32 -38 34
-51 3 -33 26 -57 81 -86 43 -24 48 -32 44 -76 -4 -52 68 -136 116 -136 22 0
16 -15 -8 -23 -30 -9 -116 -92 -135 -129 -9 -16 -34 -51 -55 -77 -22 -27 -41
-60 -43 -75 -4 -35 -26 -50 -94 -63 -31 -6 -76 -18 -101 -27 -125 -43 -176
-53 -284 -53 -97 0 -125 -4 -236 -36 -237 -69 -333 -117 -427 -213 -24 -25
-53 -49 -65 -55 -17 -9 -39 -62 -102 -251 -110 -327 -121 -365 -156 -560 -34
-191 -38 -208 -70 -320 -29 -104 -142 -396 -195 -505 -76 -155 -158 -368 -151
-392 3 -13 25 -34 48 -48 46 -28 189 -137 200 -154 4 -6 8 -53 8 -103 l0 -93
53 0 c45 0 57 5 92 35 50 43 113 50 173 19 15 -7 36 -14 46 -14 10 0 25 -8 32
-17 11 -17 45 -18 414 -20 l402 -3 -5 33 c-3 23 0 34 8 34 9 0 12 -10 8 -33
-5 -31 -5 -32 32 -31 34 1 36 3 33 29 -3 15 -1 28 4 28 4 0 8 -13 8 -28 0 -28
1 -28 70 -30 63 -3 69 -1 64 15 -5 17 -5 17 6 1 16 -26 43 -24 35 2 -4 12 0
26 9 35 13 14 14 11 9 -20 l-6 -36 89 2 c53 1 92 6 96 13 6 8 8 7 8 -1 0 -19
466 -19 473 0 4 9 6 9 6 0 1 -9 320 -12 1426 -13 l1425 0 0 72 0 73 -54 41
c-29 23 -62 47 -73 52 -10 6 -36 26 -58 46 -29 27 -42 33 -52 25 -16 -14 -16
-10 1 32 13 31 12 43 -19 149 -19 63 -34 125 -35 137 0 12 -5 25 -11 28 -5 4
-8 12 -6 18 2 7 -3 28 -13 47 -9 19 -27 73 -39 120 -13 47 -27 97 -33 111 -5
14 -8 30 -6 35 1 5 -5 29 -14 54 -26 72 -86 278 -107 372 -52 224 -200 603
-283 725 -60 89 -229 211 -453 328 -60 32 -120 64 -132 71 -13 8 -51 25 -85
38 -147 55 -305 129 -331 154 -15 14 -57 75 -93 134 -35 60 -72 117 -82 127
-66 70 -67 92 -8 150 34 34 45 39 49 27 4 -9 4 -23 0 -32 -4 -12 0 -15 18 -12
16 2 27 13 34 33 25 73 106 165 145 165 10 0 32 12 47 26 l28 26 -28 -17 c-16
-9 -31 -14 -34 -12 -9 10 18 48 29 41 6 -4 8 -3 5 3 -4 6 -1 16 7 22 11 9 15
9 19 -1 3 -7 5 26 5 75 0 87 -2 92 -38 87 -9 -1 0 15 21 37 71 75 108 133 115
181 5 26 7 54 6 62 -2 12 -1 12 6 1 12 -18 19 -5 34 61 16 74 18 326 2 358 -6
14 -15 45 -19 70 -4 24 -34 104 -66 177 -33 73 -59 140 -59 148 0 9 -11 37
-25 64 -13 27 -21 51 -18 55 4 3 1 6 -6 6 -6 0 -16 12 -21 26 -6 15 -20 40
-31 56 -12 16 -22 35 -23 42 -3 21 -189 200 -226 217 -19 9 -81 40 -137 68
-56 28 -109 51 -117 51 -9 0 -44 11 -78 24 -110 42 -261 62 -358 47z m91 -515
c35 -3 91 -12 124 -20 74 -19 78 -19 69 -3 -6 9 -5 9 7 0 12 -10 20 -9 37 3
20 14 24 14 38 0 19 -19 28 -21 18 -3 -5 6 8 -1 28 -18 20 -16 52 -41 71 -55
19 -14 33 -28 31 -31 -2 -4 8 -28 21 -54 l25 -47 -20 -25 c-20 -26 -27 -87
-11 -97 5 -3 18 -24 29 -45 23 -44 18 -54 -31 -66 -27 -7 -39 8 -14 18 6 3 2
6 -10 6 -12 1 -30 -8 -40 -18 -11 -12 -28 -18 -45 -16 -16 2 -28 -1 -28 -6 0
-5 -6 -9 -13 -9 -16 0 -51 -37 -60 -62 -4 -10 -12 -15 -21 -12 -9 4 -13 -1
-13 -13 1 -12 -6 -19 -20 -21 -14 -2 -23 -10 -23 -20 0 -43 23 -149 36 -169 8
-13 17 -43 21 -68 5 -41 13 -50 37 -46 5 1 13 -4 17 -11 10 -15 12 -98 2 -98
-3 0 -21 11 -39 25 -42 32 -57 32 -88 -6 -30 -35 -32 -46 -10 -51 13 -2 12 -6
-7 -23 -12 -11 -19 -14 -15 -7 4 6 4 12 -1 12 -4 0 -19 20 -32 45 -28 52 -58
66 -96 41 -14 -9 -24 -22 -22 -29 1 -6 -4 -11 -10 -10 -19 4 -16 -24 3 -35 14
-8 14 -10 -1 -26 -25 -24 -108 -64 -123 -59 -7 3 -31 -12 -52 -33 -31 -30 -41
-49 -45 -84 -3 -25 -8 -57 -10 -71 -3 -20 1 -28 15 -32 30 -8 23 -30 -15 -48
-35 -17 -45 -13 -23 9 9 9 9 12 -1 12 -10 0 -11 3 -2 14 9 11 6 15 -15 20 -18
5 -30 3 -36 -6 -11 -17 -29 8 -20 30 4 11 1 14 -10 9 -12 -4 -14 -1 -10 15 4
15 2 19 -7 13 -10 -6 -11 -3 -2 13 7 14 8 23 1 27 -5 3 -10 1 -10 -4 0 -6 -8
-11 -17 -10 -10 0 -13 3 -6 5 7 3 9 12 6 20 -3 7 -9 11 -14 8 -5 -3 -9 5 -9
18 0 13 -5 29 -11 35 -6 6 -12 29 -12 52 -1 22 -5 41 -8 41 -13 0 -31 90 -36
180 -7 123 19 327 47 372 11 18 20 43 20 56 0 12 12 46 27 75 22 42 27 66 28
123 0 40 3 67 7 60 4 -6 8 2 8 19 0 17 8 39 18 50 26 31 114 90 137 91 61 3
124 18 129 30 3 8 13 14 21 14 10 0 13 5 9 12 -4 6 -3 8 3 5 6 -4 39 -9 74
-11z m451 -796 c29 -1 64 -7 78 -15 14 -8 35 -14 46 -15 38 0 46 -77 14 -125
-11 -16 -20 -38 -20 -47 0 -9 -6 -21 -14 -25 -8 -5 -15 -31 -18 -64 -4 -47 -9
-61 -34 -82 -17 -15 -32 -21 -35 -15 -3 5 -9 9 -13 9 -19 -3 -25 1 -31 19 -3
11 -15 20 -25 20 -24 0 -76 46 -58 52 9 3 3 25 -22 79 -31 65 -35 82 -32 143
2 48 -2 76 -13 92 l-15 23 70 -25 c39 -13 93 -24 122 -24z m-279 -466 c3 -19
1 -24 -10 -20 -8 3 -11 1 -8 -4 3 -6 20 -10 38 -10 23 0 28 -3 20 -11 -7 -7
-55 -11 -132 -11 -67 1 -123 -3 -126 -8 -4 -6 -15 -6 -28 2 -21 11 -21 10 -7
-8 24 -31 71 -74 81 -74 5 0 9 5 9 12 0 6 3 8 6 5 4 -3 15 -2 24 3 16 8 17 5
13 -28 -2 -20 0 -32 4 -27 13 16 43 14 43 -3 0 -12 4 -11 20 6 21 23 36 30 25
12 -3 -5 -4 -10 -1 -10 2 0 12 -3 22 -7 10 -3 15 -2 12 3 -17 27 81 40 105 14
9 -10 9 -11 0 -6 -7 4 -13 3 -13 -1 0 -11 31 -56 44 -65 6 -4 7 -10 3 -14 -4
-4 -16 3 -27 16 -16 18 -20 20 -20 7 0 -21 -23 -22 -39 -3 -18 22 -52 -11 -39
-37 5 -10 7 -21 5 -24 -3 -2 -8 5 -12 16 -9 29 -27 26 -19 -3 3 -14 1 -27 -7
-31 -8 -5 -10 -4 -5 3 5 8 -3 12 -24 12 -18 0 -29 -4 -25 -10 3 -5 0 -7 -9 -4
-8 3 -12 12 -9 20 5 14 -11 19 -49 16 -10 -1 -18 4 -18 11 0 8 -4 7 -10 -3 -5
-8 -10 -11 -10 -6 0 5 -7 3 -15 -4 -9 -8 -15 -9 -15 -2 0 6 5 14 10 17 6 3 10
11 10 17 0 7 -6 6 -15 -2 -8 -7 -15 -21 -15 -31 0 -25 -15 -24 -34 3 -14 19
-16 19 -22 5 -3 -9 -10 -17 -16 -17 -5 0 -2 10 6 22 21 29 20 44 -1 27 -13
-11 -17 -11 -20 -1 -3 6 -9 9 -15 6 -6 -4 -5 3 2 15 9 17 9 26 -1 37 -11 14
-15 13 -31 -8 l-18 -23 10 28 c13 37 13 37 -7 30 -24 -8 29 42 53 51 16 6 16
8 4 16 -13 8 -12 10 3 10 10 0 16 4 13 9 -9 13 19 32 51 35 15 1 27 8 26 14
-4 15 73 17 82 2 4 -6 13 -5 25 2 10 7 16 16 13 22 -3 5 -1 6 5 2 6 -3 13 -3
16 2 2 4 18 9 34 10 25 2 30 -2 35 -24z m-623 -239 c0 -18 87 -145 94 -137 4
3 4 -1 1 -9 -4 -10 5 -28 24 -47 17 -17 31 -35 31 -41 0 -6 5 -11 11 -11 6 0
17 -7 25 -15 10 -10 11 -15 4 -15 -7 0 1 -13 16 -28 28 -27 98 -60 174 -81
l35 -9 -30 -2 c-16 -1 -24 -4 -17 -7 6 -2 10 -8 7 -12 -5 -10 29 -27 75 -39
23 -6 34 -14 32 -24 -1 -10 14 -19 55 -29 32 -7 50 -15 41 -17 -10 -2 -18 -6
-18 -9 0 -7 44 -42 54 -43 5 0 19 -11 31 -24 21 -23 21 -24 2 -47 -22 -28 -17
-76 15 -127 l20 -33 -22 -24 c-18 -20 -21 -30 -15 -65 7 -44 44 -95 76 -105
10 -4 17 -11 14 -16 -4 -5 3 -5 18 0 14 6 28 7 31 4 3 -4 6 -1 6 5 0 7 3 11 8
10 4 -1 22 6 40 15 17 10 32 14 32 9 0 -9 -111 -67 -122 -64 -5 1 -8 -3 -8 -9
0 -5 -4 -7 -10 -4 -5 3 -10 1 -10 -5 0 -11 29 -6 59 10 22 12 61 -10 67 -37
10 -37 -4 -71 -46 -117 -22 -24 -40 -48 -40 -54 0 -7 -11 -19 -25 -28 -14 -9
-47 -44 -74 -78 -27 -33 -72 -86 -101 -116 -29 -30 -59 -70 -66 -87 -8 -18
-19 -33 -24 -33 -5 0 -7 -8 -4 -17 4 -10 -3 -4 -15 12 -12 17 -20 38 -17 48 2
9 1 15 -4 12 -11 -7 -21 22 -14 40 4 8 1 15 -6 15 -6 0 -8 -5 -4 -12 5 -8 1
-8 -10 1 -9 8 -24 28 -33 45 -43 83 -133 208 -214 293 -86 91 -107 123 -57 89
24 -17 38 -20 38 -8 0 4 -18 15 -39 25 -56 25 -81 51 -81 81 0 27 -15 98 -32
156 -15 48 -26 159 -16 162 4 2 -4 28 -19 58 -24 49 -27 67 -27 160 0 61 7
146 18 203 10 54 16 100 13 104 -4 3 -2 14 3 24 6 10 11 47 12 83 1 63 2 65
20 49 10 -9 18 -21 18 -28z"/>
<path d="M2711 4320 c-66 -33 -95 -64 -81 -90 7 -13 7 -21 0 -25 -16 -10 -12
-25 5 -19 8 4 22 0 31 -7 13 -11 15 -11 14 2 -5 36 0 42 33 36 17 -3 26 -3 20
0 -21 8 -15 23 10 23 12 1 45 2 72 3 57 2 72 -14 23 -25 -106 -25 -148 -49
-127 -74 5 -6 6 -13 3 -17 -7 -7 87 -51 101 -47 6 1 23 4 40 6 16 2 39 7 50
10 16 4 17 3 5 -5 -13 -9 -12 -11 5 -11 16 -1 14 -4 -10 -15 -29 -14 -27 -15
42 -12 57 2 77 7 95 24 13 11 28 19 34 16 6 -2 17 15 24 37 12 37 12 44 -8 78
-12 22 -19 47 -16 59 4 12 0 30 -7 40 -13 17 -70 25 -206 27 -17 1 -30 3 -28
6 10 16 -78 2 -124 -20z"/>
<path d="M0 4497 c0 -23 5 -27 28 -28 232 -4 782 20 758 33 -9 5 -189 12 -401
15 l-385 6 0 -26z"/>
<path d="M970 4032 c0 -27 26 -38 145 -61 61 -11 110 -31 225 -88 100 -50 139
-72 150 -83 9 -9 125 -96 139 -105 10 -6 12 -4 6 6 -23 38 -81 100 -100 105
-11 4 -36 19 -55 34 -49 39 -230 130 -258 130 -12 0 -39 8 -60 19 -20 10 -63
24 -95 32 -32 7 -60 16 -63 21 -10 15 -34 8 -34 -10z"/>
</g>
</svg>
