<?xml version="1.0" standalone="no"?>
<!DOCTYPE svg PUBLIC "-//W3C//DTD SVG 20010904//EN"
 "http://www.w3.org/TR/2001/REC-SVG-20010904/DTD/svg10.dtd">
<svg version="1.0" xmlns="http://www.w3.org/2000/svg"
 width="570.000000pt" height="565.000000pt" viewBox="0 0 570.000000 565.000000"
 preserveAspectRatio="xMidYMid meet">
<metadata>
Created by potrace 1.16, written by Peter Selinger 2001-2019
</metadata>
<g transform="translate(0.000000,565.000000) scale(0.100000,-0.100000)"
fill="#000000" stroke="none">
<path d="M2523 5379 c-304 -35 -443 -138 -613 -454 -88 -163 -270 -730 -285
-885 -8 -88 -26 -171 -42 -195 -7 -11 -13 -34 -13 -51 0 -18 -13 -57 -29 -88
-17 -31 -26 -56 -22 -56 13 0 31 -49 21 -55 -6 -4 -10 -13 -10 -21 0 -8 5 -12
10 -9 6 4 10 -9 11 -32 3 -198 9 -343 15 -368 4 -16 7 -42 6 -56 -1 -15 8 -44
18 -65 11 -21 20 -44 20 -50 0 -22 -42 -2 -59 27 -18 32 -36 37 -45 13 -7 -19
10 -45 27 -39 7 3 20 -7 31 -21 18 -25 18 -26 -23 -107 -29 -57 -42 -97 -43
-130 -1 -27 -8 -53 -15 -59 -7 -6 -13 -22 -13 -36 0 -17 -15 -41 -42 -69 -49
-50 -41 -53 57 -28 113 30 164 30 218 1 27 -15 53 -24 58 -21 5 4 9 1 9 -4 0
-6 6 -11 14 -11 8 0 16 -3 18 -7 2 -5 23 -21 48 -38 50 -33 86 -36 265 -21 87
8 91 7 111 -15 27 -31 41 -71 49 -140 7 -68 52 -135 97 -144 33 -8 59 -42 86
-113 11 -28 33 -68 50 -89 16 -21 42 -60 57 -88 33 -59 135 -218 145 -225 6
-4 29 -38 91 -130 5 -8 29 -46 53 -85 25 -38 54 -82 65 -97 12 -14 21 -31 21
-37 0 -5 17 -26 38 -46 53 -48 69 -80 52 -100 -10 -12 -9 -23 7 -57 11 -24 32
-80 47 -125 26 -78 46 -113 46 -80 0 15 -88 389 -116 492 -30 109 -66 211
-117 330 -27 65 -149 298 -165 318 -5 7 -22 35 -37 62 -15 28 -62 109 -105
180 -42 72 -84 144 -93 160 l-15 30 37 0 c24 0 44 8 57 21 12 12 27 23 34 26
8 2 9 10 2 28 -6 14 -16 44 -23 67 -7 24 -25 57 -40 74 -25 28 -28 40 -31 115
-2 47 -1 89 0 94 2 6 20 10 40 10 25 0 55 12 92 35 37 24 66 35 92 35 42 0 47
6 21 26 -17 12 -16 15 11 43 17 17 38 31 48 31 10 0 18 5 18 10 0 6 18 10 40
10 31 0 40 4 40 18 0 15 -2 15 -11 2 -8 -11 -12 -12 -16 -2 -2 6 -20 12 -38
12 -24 0 -45 9 -70 31 -37 33 -44 56 -20 65 18 7 18 14 0 38 -12 16 -17 17
-30 6 -13 -10 -15 -9 -15 8 0 12 -5 33 -12 47 -10 21 -8 32 10 64 12 21 22 50
22 64 0 22 7 28 38 37 41 11 75 30 55 30 -7 0 -13 7 -13 16 0 8 -7 23 -16 32
-15 15 -15 16 2 22 22 8 9 16 -31 18 -16 1 -33 9 -38 18 -8 14 -10 14 -26 0
-16 -15 -19 -15 -34 2 -23 25 -12 92 15 92 10 0 21 -7 25 -16 5 -13 10 -11 28
12 19 24 25 26 38 15 11 -9 21 -10 33 -3 10 5 45 7 78 5 34 -3 58 -3 54 1 -3
4 -14 9 -24 10 -10 2 -21 9 -24 17 -4 8 -12 24 -19 37 -9 18 -9 26 4 38 8 9
15 22 15 29 0 18 -28 45 -46 45 -8 0 -14 5 -14 10 0 14 13 12 36 -5 22 -17 50
-19 59 -5 20 32 -85 64 -130 40 -39 -21 -54 -8 -45 39 9 50 25 71 56 71 18 0
24 5 24 23 0 13 5 28 11 34 8 8 8 51 1 154 -9 121 -14 146 -30 159 -10 9 -22
28 -26 44 -8 33 -63 86 -89 86 -10 0 -37 10 -60 22 -23 12 -55 24 -72 27 -40
9 -49 56 -13 70 13 5 40 25 60 43 35 32 37 38 39 98 2 75 24 115 73 135 17 7
45 28 61 45 34 35 102 70 137 70 13 0 34 -9 48 -20 14 -11 31 -20 38 -20 22 0
117 -76 166 -132 26 -29 69 -93 97 -143 28 -49 70 -121 95 -160 48 -75 59
-112 24 -80 -22 20 -155 33 -204 21 -39 -10 -36 -46 3 -46 17 0 33 5 36 10 3
6 11 10 16 10 6 0 8 -4 5 -9 -7 -10 92 -27 101 -17 4 3 -2 6 -13 7 -18 0 -18
1 1 8 15 6 29 0 59 -29 42 -41 55 -82 56 -180 0 -30 12 -98 25 -150 36 -138
41 -218 20 -341 -22 -132 -47 -214 -96 -313 -79 -159 -188 -286 -285 -333
l-57 -28 2 -111 c1 -68 10 -145 22 -200 11 -49 27 -125 34 -169 8 -44 18 -101
23 -128 5 -26 5 -47 0 -47 -4 0 -8 -4 -8 -10 0 -5 9 -10 20 -10 11 0 20 -4 20
-10 0 -5 13 -10 29 -10 38 0 42 -13 46 -147 3 -95 8 -123 33 -185 63 -158 65
-219 8 -303 -14 -20 -30 -52 -36 -71 -7 -20 -18 -48 -26 -62 -8 -15 -14 -34
-14 -44 0 -9 -6 -18 -12 -21 -9 -3 -7 -7 5 -12 28 -12 53 27 67 103 15 78 35
132 49 132 6 0 15 18 21 40 12 45 26 51 35 18 3 -13 11 -40 17 -60 8 -28 8
-41 -1 -52 -10 -12 -9 -19 2 -38 15 -23 34 -109 35 -163 1 -16 8 -77 16 -135
l15 -105 -5 80 c-2 44 -9 125 -15 180 -20 187 -20 215 -4 209 8 -4 15 -2 15 4
0 9 50 26 66 22 4 -1 10 4 15 11 4 7 14 14 22 15 10 1 18 -24 31 -100 20 -114
44 -211 45 -181 1 11 -8 70 -19 130 -11 61 -27 153 -36 205 -9 52 -21 110 -26
128 -5 18 -13 56 -18 85 -4 29 -26 112 -49 185 -43 139 -47 162 -31 162 19 0
84 -30 92 -43 5 -7 6 -57 3 -112 -7 -112 -1 -131 39 -121 24 6 26 11 26 59 0
28 -7 70 -14 92 -8 22 -12 43 -10 47 3 4 25 -2 50 -12 57 -25 68 -25 61 0 -6
23 25 45 49 36 21 -8 17 -26 -7 -26 -11 0 -17 -4 -14 -10 4 -6 16 -10 27 -8
22 3 26 -2 59 -75 12 -26 23 -46 25 -44 3 2 -5 33 -16 68 -11 35 -20 65 -20
67 0 1 7 2 15 2 8 0 15 5 15 11 0 6 -8 8 -18 5 -11 -4 -25 1 -36 13 -9 10 -37
31 -62 47 -24 15 -44 34 -44 42 0 8 -9 26 -21 40 l-21 27 44 8 c101 20 145 7
229 -65 31 -26 58 -45 61 -43 3 3 11 -1 18 -10 7 -8 19 -15 27 -15 15 0 -31
74 -69 112 -11 11 -17 22 -15 25 8 7 67 -26 67 -37 0 -6 5 -10 11 -10 6 0 8 9
4 22 -6 18 -4 20 11 13 11 -4 26 -8 35 -9 9 -1 28 -12 44 -24 15 -12 31 -22
34 -22 9 0 42 73 35 79 -3 3 -9 -1 -14 -9 -8 -12 -16 -8 -47 22 -39 39 -39 67
0 30 52 -49 59 -12 11 58 -35 53 -53 101 -57 161 -3 48 -15 91 -34 123 -4 6 1
5 10 -3 10 -8 19 -12 22 -10 10 11 -35 87 -66 112 -19 15 -43 36 -54 46 -11
10 -38 30 -61 44 -83 51 -91 74 -97 247 -3 115 -3 117 -46 195 -54 101 -81
219 -80 353 1 53 -2 107 -5 120 -3 12 -6 48 -6 80 -2 62 -25 195 -39 221 -12
22 -41 139 -51 204 -21 140 -102 334 -191 454 -58 78 -174 199 -236 244 -103
77 -244 125 -339 115 -42 -4 -81 -1 -120 9 -32 8 -63 14 -69 14 -5 -1 -43 -5
-82 -10z m112 -1209 c1 -8 -4 -18 -10 -22 -5 -5 4 -5 21 -2 60 11 74 -49 26
-115 -18 -24 -32 -54 -32 -65 0 -43 -72 -126 -108 -126 -35 0 -118 -48 -130
-75 -8 -17 -7 -37 5 -77 8 -29 21 -82 27 -118 7 -36 16 -76 21 -90 13 -41 -18
-8 -41 42 -10 24 -31 63 -46 87 -29 46 -38 114 -18 126 6 4 11 37 10 73 0 37
1 78 3 92 1 19 -3 25 -18 25 -24 0 -44 30 -45 68 0 16 -7 35 -15 43 -16 16
-20 81 -7 100 4 6 23 14 42 18 34 6 57 8 204 20 38 3 72 8 75 11 10 11 36 0
36 -15z"/>
<path d="M3170 4357 c-45 -11 -93 -46 -86 -62 2 -7 -2 -22 -10 -34 -19 -26
-11 -41 22 -41 16 0 28 -8 36 -25 10 -23 74 -52 87 -40 2 3 -1 5 -7 5 -7 0
-12 8 -12 19 0 12 9 20 29 24 22 5 33 15 42 42 15 41 27 44 58 11 24 -26 20
-32 -27 -46 -18 -5 -5 -7 38 -5 36 2 72 4 80 4 25 2 -52 60 -122 93 -70 32
-81 44 -50 50 10 3 5 6 -14 9 -16 3 -45 1 -64 -4z"/>
<path d="M1558 1931 c3 -9 14 -29 24 -46 22 -36 23 -46 3 -39 -12 5 -13 2 -1
-23 35 -71 29 -79 -19 -25 -62 70 -77 66 -22 -5 58 -76 69 -100 74 -148 1 -22
12 -66 24 -97 12 -32 19 -64 16 -72 -4 -9 0 -28 8 -42 8 -15 12 -31 9 -36 -6
-9 27 -68 38 -68 4 0 3 11 -2 25 -5 14 -12 48 -15 77 -3 29 -7 69 -10 88 -3
19 -7 69 -10 110 -10 136 -23 211 -40 225 -7 5 -18 26 -24 46 -8 26 -19 38
-36 41 -18 4 -22 1 -17 -11z"/>
<path d="M813 1906 c7 -13 15 -22 19 -20 5 3 8 -5 8 -16 0 -14 8 -24 21 -27
12 -3 18 -11 15 -19 -3 -8 -1 -14 5 -14 6 0 7 -5 3 -11 -4 -8 0 -8 15 0 11 7
21 17 21 23 0 9 3 9 12 0 19 -19 30 -14 17 7 -7 10 -9 26 -5 36 6 17 9 16 34
-8 16 -15 32 -27 38 -27 5 0 31 -11 59 -25 27 -14 56 -23 63 -20 8 3 22 0 31
-7 10 -8 9 -4 -3 10 -11 12 -25 21 -32 18 -7 -3 -15 2 -18 10 -3 8 -12 14 -21
14 -9 0 -28 9 -43 20 -32 23 -149 65 -209 74 -41 6 -41 6 -30 -18z"/>
<path d="M805 1743 c-14 -8 -30 -11 -35 -8 -6 4 -10 -12 -10 -39 0 -28 5 -46
11 -46 8 0 10 12 6 34 -6 36 16 59 27 30 10 -26 7 -64 -6 -64 -6 0 -8 -3 -5
-6 3 -4 2 -15 -3 -25 -7 -12 -6 -26 0 -41 8 -16 8 -31 1 -48 -5 -14 -10 -18
-11 -10 0 13 -1 13 -10 0 -14 -22 -12 -70 3 -70 9 0 8 -3 -2 -9 -7 -5 -10 -14
-7 -20 4 -6 8 -29 8 -51 0 -41 11 -52 22 -23 4 9 2 20 -5 23 -15 10 -3 45 24
73 l22 22 24 -22 c13 -13 27 -21 31 -18 4 2 7 -1 7 -8 0 -7 3 -22 7 -35 6 -19
2 -25 -28 -37 -39 -17 -48 -35 -17 -35 25 0 38 -20 21 -30 -18 -11 -2 -32 20
-25 18 6 57 -10 73 -30 6 -7 10 -6 13 1 3 6 16 9 30 6 25 -5 26 -3 19 29 -10
45 -10 46 -42 47 -45 3 -62 7 -76 21 -9 10 -9 12 3 9 9 -2 16 6 18 18 3 21 23
29 95 36 10 2 15 8 12 16 -3 7 -5 17 -5 22 0 5 -22 19 -50 31 -34 15 -50 28
-50 41 0 11 -13 31 -30 45 -16 13 -30 33 -30 43 0 10 -13 30 -30 43 -35 30
-38 49 -8 62 11 6 27 20 35 31 13 20 12 22 -16 26 -16 2 -41 -2 -56 -9z"/>
<path d="M778 1261 c-9 -17 -14 -39 -11 -50 3 -12 1 -21 -6 -21 -6 0 -11 -9
-11 -21 0 -11 4 -18 9 -14 5 3 12 -3 14 -12 9 -35 7 -145 -4 -165 -8 -14 -7
-23 2 -34 9 -11 9 -18 1 -26 -7 -7 -12 -17 -12 -22 0 -6 5 -5 12 2 7 7 16 12
20 12 12 0 10 -64 -3 -97 -12 -33 -21 -140 -13 -166 3 -9 10 -15 15 -12 5 4 9
2 9 -4 0 -5 -4 -13 -10 -16 -5 -3 -10 -17 -10 -31 0 -13 -4 -24 -10 -24 -5 0
-10 -16 -10 -35 0 -19 5 -35 11 -35 5 0 7 5 3 12 -4 6 -3 8 4 4 6 -4 8 -21 5
-41 -3 -19 -1 -40 4 -47 9 -11 26 -88 28 -123 0 -5 6 -14 13 -18 7 -5 10 -12
7 -16 -2 -5 6 -11 19 -13 19 -4 23 -1 19 11 -3 12 -1 11 7 -2 6 -10 9 -24 7
-31 -4 -10 1 -12 14 -9 23 6 44 39 30 48 -5 3 -13 46 -17 96 -7 95 -19 121
-54 112 -16 -4 -20 0 -20 20 0 16 8 31 20 37 11 6 20 15 20 21 0 6 -13 1 -29
-10 -41 -29 -45 -27 -38 22 7 51 28 97 43 97 12 0 24 53 24 108 0 17 4 32 9
32 17 0 30 -26 24 -48 -4 -16 -1 -22 12 -22 12 0 16 6 12 20 -3 11 -1 18 4 14
15 -9 10 8 -7 27 -9 10 -13 23 -9 28 10 17 103 13 130 -5 24 -15 25 -15 25 3
0 25 -30 53 -58 53 -11 0 -24 5 -27 10 -3 6 -17 10 -31 10 -32 0 -84 39 -84
63 0 14 -5 17 -20 12 -16 -5 -20 -2 -20 14 0 14 -6 21 -20 21 -16 0 -20 7 -20
34 0 36 24 67 33 44 4 -8 8 -9 14 -3 11 14 86 18 78 4 -8 -12 37 11 47 25 8
11 -6 25 -54 55 -21 12 -38 27 -38 33 0 5 -7 17 -16 25 -19 19 -35 3 -27 -28
8 -28 -18 -23 -40 7 -21 29 -16 74 9 74 8 0 12 5 9 10 -10 16 -19 12 -37 -19z"/>
<path d="M1823 1218 c-37 -46 -46 -82 -39 -161 4 -48 12 -85 21 -94 19 -19 19
-43 0 -43 -11 0 -15 -11 -15 -37 1 -32 3 -35 13 -22 7 8 20 18 30 22 16 6 17
21 13 173 -2 91 -6 168 -9 170 -2 2 -9 -1 -14 -8z"/>
<path d="M4517 1078 c-15 -18 -27 -36 -27 -40 0 -5 -9 -8 -20 -8 -13 0 -24
-10 -31 -27 -6 -16 -21 -40 -35 -54 -23 -25 -25 -31 -23 -140 3 -204 2 -218
-25 -242 -13 -12 -26 -34 -28 -47 -2 -14 -8 -24 -14 -23 -6 1 -32 -18 -57 -42
-25 -24 -54 -49 -65 -57 -10 -7 -28 -29 -41 -48 -13 -19 -43 -55 -67 -80 -42
-45 -84 -113 -84 -137 0 -16 159 -18 223 -3 63 14 195 38 255 45 28 4 52 11
52 16 0 5 -6 9 -13 9 -21 0 -47 34 -47 62 0 13 11 35 25 48 36 34 31 43 -12
18 -20 -12 -38 -18 -40 -12 -2 5 -21 8 -43 6 l-40 -4 0 41 c0 25 -4 40 -11 39
-23 -6 -19 20 11 60 22 30 52 53 110 82 44 22 81 39 83 38 8 -6 39 27 48 49 5
13 16 23 25 23 10 0 14 5 10 16 -3 8 -2 12 4 9 6 -3 10 -1 10 4 0 6 6 11 14
11 8 0 12 8 9 23 -5 24 44 82 82 98 16 6 17 8 3 8 -9 1 -24 -6 -32 -15 -9 -8
-35 -21 -58 -28 -32 -9 -44 -18 -46 -34 -3 -21 -70 -82 -90 -82 -5 0 -16 -10
-25 -22 -19 -30 -34 -16 -19 17 7 14 12 35 12 45 0 11 8 46 19 77 43 133 45
142 32 157 -7 8 -10 19 -7 25 3 5 1 11 -6 13 -16 6 -63 -52 -91 -109 -25 -50
-42 -56 -32 -12 11 50 54 135 96 191 34 46 46 68 36 68 -2 0 -15 -15 -30 -32z"/>
<path d="M1831 442 c-8 -22 -11 -51 -8 -64 21 -87 29 -112 44 -134 13 -20 14
-39 9 -99 -4 -42 -4 -91 0 -110 l6 -35 87 0 c74 0 88 3 98 19 10 17 8 21 -18
31 -16 7 -44 26 -60 41 l-31 29 21 29 c12 16 21 38 21 49 0 27 37 33 157 25
80 -4 96 -3 86 7 -7 8 -31 13 -54 12 -36 -2 -40 0 -29 13 7 9 10 19 6 22 -4 4
-10 3 -14 -3 -10 -16 -52 -24 -49 -10 2 13 -38 10 -70 -6 -17 -8 -26 -8 -37 1
-13 11 -13 17 0 46 8 19 14 49 14 68 0 28 -5 35 -33 45 -18 7 -47 12 -64 12
-22 0 -37 8 -50 26 l-19 26 -13 -40z"/>
<path d="M5208 232 c-26 -15 -48 -30 -48 -33 0 -14 106 -16 133 -3 15 8 27 12
27 10 0 -3 12 -1 26 5 23 8 35 4 90 -32 64 -41 89 -76 107 -152 5 -17 14 -27
26 -27 19 0 18 3 -5 62 -44 114 -96 162 -200 184 -90 18 -101 18 -156 -14z"/>
</g>
</svg>
