<?xml version="1.0" standalone="no"?>
<!DOCTYPE svg PUBLIC "-//W3C//DTD SVG 20010904//EN"
 "http://www.w3.org/TR/2001/REC-SVG-20010904/DTD/svg10.dtd">
<svg version="1.0" xmlns="http://www.w3.org/2000/svg"
 width="377.000000pt" height="544.000000pt" viewBox="0 0 377.000000 544.000000"
 preserveAspectRatio="xMidYMid meet">
<metadata>
Created by potrace 1.16, written by Peter Selinger 2001-2019
</metadata>
<g transform="translate(0.000000,544.000000) scale(0.100000,-0.100000)"
fill="#000000" stroke="none">
<path d="M470 5429 c-14 -6 -53 -8 -92 -5 l-66 6 -6 -63 c-7 -83 -20 -448 -21
-568 0 -95 1 -97 32 -129 17 -18 42 -52 55 -76 18 -34 29 -44 49 -44 51 0 64
-21 64 -102 -1 -96 -7 -116 -54 -166 -33 -36 -48 -44 -98 -54 l-60 -11 -7 -75
c-9 -105 -8 -142 4 -142 5 0 13 17 16 39 3 21 16 56 28 77 22 38 23 39 75 36
38 -2 63 -10 86 -27 37 -29 61 -31 112 -10 20 9 43 13 50 11 7 -3 15 -1 18 3
2 5 20 12 39 15 l34 7 7 75 c4 41 5 93 1 114 -6 38 -3 43 49 100 65 71 70 99
24 148 -16 17 -37 32 -45 32 -7 0 -14 5 -14 10 0 6 -9 10 -20 10 -11 0 -20 7
-20 15 0 9 -7 26 -15 39 -8 12 -18 50 -21 83 -6 54 -3 66 20 110 15 27 26 58
25 68 -7 93 -2 155 16 175 16 18 17 25 7 54 -7 18 -12 48 -12 66 0 29 -9 43
-57 87 -31 29 -60 53 -64 53 -4 0 -9 9 -12 20 -4 14 -14 20 -34 20 -15 0 -37
2 -48 5 -11 2 -31 -1 -45 -6z"/>
<path d="M1602 5192 c6 -7 9 -14 7 -15 -33 -24 -62 -37 -69 -32 -6 4 -8 11 -5
16 14 21 -13 7 -43 -24 -23 -24 -30 -38 -26 -55 6 -20 4 -21 -25 -16 -20 4
-37 2 -48 -7 -15 -12 -16 -12 -10 5 6 15 4 17 -10 11 -10 -4 -29 -10 -43 -13
-34 -7 -39 -18 -29 -61 4 -20 5 -37 0 -39 -4 -1 -4 -30 0 -65 4 -34 4 -64 0
-67 -4 -3 -8 -26 -8 -52 -1 -25 -7 -56 -13 -68 -16 -30 -22 -58 -21 -110 0
-25 -4 -64 -10 -88 -9 -31 -9 -66 0 -134 13 -100 32 -138 79 -157 15 -6 33
-20 39 -30 10 -16 6 -25 -29 -62 l-41 -43 8 -80 c4 -45 9 -109 11 -144 1 -36
10 -74 18 -87 9 -14 16 -31 16 -39 0 -8 20 -35 45 -60 25 -26 45 -50 45 -55 0
-4 9 -18 20 -31 12 -14 16 -26 10 -30 -6 -4 4 -28 25 -61 19 -29 35 -59 35
-65 0 -6 -27 -64 -60 -128 -33 -65 -53 -113 -46 -106 12 9 13 7 9 -10 -3 -12
-17 -26 -31 -31 -13 -5 -57 -38 -96 -74 -69 -61 -72 -63 -70 -36 1 16 7 38 14
50 24 46 -3 33 -60 -28 -39 -41 -65 -80 -75 -110 -8 -25 -13 -36 -11 -23 3 17
1 22 -10 18 -24 -9 -15 17 18 51 23 24 27 33 16 33 -30 0 -49 -12 -59 -36 -4
-13 -16 -24 -26 -24 -13 0 -14 3 -5 12 18 18 15 28 -9 28 -12 0 -28 -8 -35
-17 -37 -49 -69 -114 -83 -172 -10 -38 -22 -66 -31 -69 -12 -4 -13 -2 -3 9 7
7 13 27 12 43 l0 31 -12 -25 c-15 -35 -15 -35 -40 -22 -30 14 -79 26 -97 23
-8 -2 -25 -12 -37 -23 -18 -17 -30 -19 -75 -14 -29 3 -66 6 -83 6 -16 0 -33 6
-37 13 -12 19 -10 117 3 117 6 0 9 6 6 14 -3 7 0 19 6 25 16 16 6 21 -49 25
-57 5 -99 20 -121 42 -8 8 -28 18 -44 21 -16 3 -29 12 -29 19 0 8 -8 14 -18
14 -36 0 -55 -25 -64 -86 -5 -32 -12 -84 -17 -114 -5 -30 -7 -60 -4 -66 2 -6
49 -10 126 -10 112 1 128 -1 174 -24 39 -19 52 -32 57 -54 13 -63 7 -87 -33
-127 -21 -22 -35 -39 -30 -39 5 0 9 -7 9 -15 0 -35 78 -82 94 -56 4 6 23 3 52
-9 25 -11 50 -20 55 -20 6 0 17 17 26 38 15 36 76 102 95 102 5 0 8 -12 6 -27
-2 -20 -8 -27 -21 -25 -19 3 -24 -14 -4 -21 9 -3 9 -7 -1 -19 -7 -9 -10 -23
-6 -32 7 -19 4 -19 -30 -6 -20 7 -26 6 -26 -4 0 -7 7 -19 15 -26 23 -19 18
-28 -17 -39 -18 -5 -26 -10 -18 -10 11 -1 15 -12 15 -41 l0 -39 -37 6 c-34 5
-38 3 -38 -15 0 -13 8 -22 23 -25 21 -4 21 -5 2 -11 -12 -4 -25 -15 -30 -25
-40 -75 -57 -102 -61 -98 -3 3 2 19 10 36 9 16 16 34 16 38 0 12 -49 -50 -50
-63 0 -14 -61 -96 -67 -90 -3 2 1 14 7 26 23 43 2 44 -39 1 -23 -24 -39 -47
-35 -50 3 -3 20 -11 37 -18 30 -10 28 -11 -19 -6 l-52 6 -12 -39 c-6 -22 -16
-49 -22 -61 -14 -28 -3 -41 21 -26 10 6 22 8 27 4 5 -4 45 -16 89 -26 63 -15
75 -20 55 -25 -15 -4 -47 1 -77 12 -66 23 -105 23 -132 1 -18 -16 -22 -36 -32
-161 -6 -79 -9 -148 -6 -155 2 -7 1 -39 -4 -72 -9 -70 4 -192 26 -234 20 -39
69 -68 130 -76 28 -4 104 -20 170 -37 101 -25 132 -29 200 -25 44 3 92 9 106
12 l25 7 -10 -84 c-5 -46 -9 -137 -9 -203 0 -105 4 -135 33 -240 18 -66 36
-142 41 -170 13 -86 38 -143 70 -162 24 -14 29 -24 29 -56 0 -40 8 -52 98
-144 24 -24 53 -48 65 -53 29 -12 1657 -11 1657 1 0 5 12 9 28 9 15 0 36 7 46
15 27 20 31 19 44 -11 10 -20 18 -25 39 -22 26 3 27 5 25 58 -9 190 -54 334
-87 280 -3 -6 -1 -10 6 -10 7 0 4 -7 -7 -15 -10 -8 -28 -15 -38 -15 -20 0 -20
0 0 16 21 17 19 17 -36 -3 -42 -16 13 17 70 41 97 42 165 77 201 107 31 25 32
26 39 149 9 134 3 166 -45 238 l-26 39 21 40 c20 40 19 74 -3 69 -7 -1 -9 -1
-4 1 13 8 7 33 -18 81 -29 54 -31 96 -10 166 8 27 15 80 15 118 0 49 6 80 20
108 31 61 27 80 -17 80 -31 0 -34 2 -21 12 26 20 46 106 40 167 -4 46 -3 53
11 48 21 -8 28 24 11 48 -20 28 -17 75 10 157 18 53 23 85 19 116 -4 33 2 63
27 134 31 86 32 96 27 192 -3 59 -2 91 3 76 8 -24 8 -24 9 -2 1 15 7 22 20 22
24 0 30 16 23 58 -4 28 -8 33 -26 30 -20 -4 -21 0 -24 83 -3 82 -1 89 20 100
15 8 23 9 26 1 2 -6 16 -27 32 -47 16 -20 32 -45 35 -54 9 -30 47 -41 68 -21
14 14 26 16 54 10 44 -10 48 -14 62 -72 19 -82 15 -120 -19 -151 -16 -16 -30
-35 -30 -43 0 -8 -4 -14 -10 -14 -5 0 -10 -9 -10 -21 0 -12 -4 -17 -11 -13 -8
4 -8 0 0 -15 13 -23 12 -23 56 -26 50 -3 95 14 95 35 0 10 4 21 9 24 8 5 16
34 28 101 2 11 13 40 26 65 21 43 22 57 25 383 3 326 2 339 -17 363 -11 15
-23 41 -27 60 -9 50 -42 55 -91 15 -54 -45 -102 -41 -128 10 -19 35 -19 74 -1
91 18 17 0 58 -27 58 -10 0 -38 -20 -61 -44 -50 -53 -92 -76 -143 -76 -44 0
-113 -17 -113 -28 0 -4 14 -24 31 -45 l30 -37 22 21 c12 11 34 23 50 26 15 3
27 9 27 14 0 5 9 9 20 9 18 0 20 -5 17 -43 -2 -23 -11 -58 -20 -77 -8 -19 -18
-47 -21 -62 -4 -16 -10 -28 -15 -28 -5 0 -7 -10 -4 -22 9 -38 -13 -7 -27 37
-30 95 -79 160 -183 242 -30 23 -97 53 -121 53 -14 0 -28 5 -31 10 -3 6 -17
10 -31 10 -13 0 -24 5 -24 11 0 8 -15 10 -47 6 -34 -5 -54 -2 -67 8 -19 15
-19 15 5 16 22 0 22 1 4 8 -11 5 -24 6 -28 4 -4 -3 -13 0 -20 5 -7 6 -35 19
-64 30 -38 15 -55 17 -64 8 -9 -8 -10 -8 -5 1 4 7 -8 18 -31 29 -21 10 -41 19
-44 21 -4 1 -18 -7 -33 -18 -14 -11 -26 -16 -26 -10 0 6 5 11 11 11 5 0 7 5 4
11 -4 6 -13 8 -20 5 -23 -9 -25 6 -2 25 19 16 20 18 5 19 -10 0 -18 5 -18 11
0 5 4 8 9 5 5 -3 14 0 20 8 9 11 6 21 -15 45 -14 17 -32 31 -39 31 -8 0 -18 7
-23 16 -7 13 -13 14 -31 5 -11 -7 -21 -16 -21 -21 0 -6 -4 -10 -10 -10 -6 0
-10 28 -10 63 0 35 -3 67 -7 71 -5 4 -8 12 -8 18 0 6 -17 17 -39 24 -44 16
-65 39 -58 66 2 10 0 18 -4 18 -5 0 -9 23 -9 51 0 81 -5 87 -72 87 -57 0 -123
22 -123 41 0 4 11 13 25 19 25 11 79 104 68 116 -11 10 3 7 33 -9 26 -13 29
-13 36 3 4 9 7 14 7 10 1 -4 16 -1 34 7 31 13 34 12 47 -8 17 -26 14 -57 -8
-73 -10 -7 -12 -16 -6 -25 5 -8 7 -22 6 -31 -2 -13 3 -18 21 -18 32 0 45 30
21 47 -10 7 -13 13 -7 13 6 0 16 14 22 30 14 42 25 37 18 -7 -3 -22 0 -55 8
-78 8 -22 15 -50 15 -63 l0 -23 29 20 c38 27 42 27 35 -9 -8 -37 1 -39 19 -2
18 34 29 156 19 202 -8 35 -9 35 -57 32 l-49 -3 26 21 c15 11 30 20 36 20 30
0 63 179 50 268 -3 17 -1 32 4 32 5 0 4 9 -2 19 -5 11 -7 27 -4 35 3 9 2 16
-3 16 -9 0 -48 74 -48 90 0 3 -12 21 -27 41 -15 19 -40 60 -56 90 -16 29 -39
59 -51 65 -12 6 -21 15 -19 20 5 14 -64 44 -101 44 -33 0 -34 -1 -17 -19 10
-11 24 -17 32 -14 26 10 14 -6 -16 -22 -26 -13 -29 -14 -24 0 4 10 0 15 -10
15 -25 0 -32 31 -11 46 17 13 17 14 -1 20 -10 3 -29 10 -42 15 -15 6 -36 4
-64 -6 -37 -12 -43 -12 -53 2 -7 9 -17 13 -23 9 -7 -4 -12 -2 -12 3 0 6 8 11
18 11 14 0 14 2 3 9 -14 9 -43 -8 -35 -21 2 -4 0 -9 -6 -13 -5 -3 -10 1 -10 9
0 23 -17 20 -25 -4 -3 -11 -11 -20 -18 -20 -8 0 -8 3 1 12 7 7 12 15 12 19 0
10 -41 21 -67 19 -13 -1 -23 4 -23 12 0 8 -3 9 -8 3 -4 -5 -16 -17 -26 -25
-18 -13 -19 -13 -14 1 4 10 -1 15 -16 16 -11 1 -38 3 -58 5 -29 3 -34 1 -26
-10z m246 -307 c66 -66 108 -86 184 -85 35 1 72 1 83 1 37 0 72 -55 77 -124 4
-42 15 -82 37 -124 29 -59 40 -103 24 -103 -4 0 -39 10 -79 21 -58 18 -74 27
-88 53 -31 55 -77 77 -170 78 -106 1 -160 -8 -214 -37 -41 -22 -46 -23 -68 -9
-29 19 -214 33 -214 16 0 -6 -6 -9 -14 -6 -7 3 -26 -6 -42 -20 -25 -22 -26
-25 -9 -26 30 0 5 -17 -38 -24 -26 -5 -37 -4 -33 3 4 6 13 58 21 117 8 65 20
113 29 123 9 10 16 22 16 28 0 5 11 20 25 33 14 13 25 29 25 35 0 39 146 91
271 98 47 2 95 9 105 15 15 8 21 5 35 -16 9 -15 26 -36 37 -47z m-473 -416
c-22 -11 -55 -62 -55 -85 0 -17 5 -17 30 -2 32 20 36 -1 5 -27 -17 -13 -24
-24 -17 -25 7 0 34 -10 60 -21 l46 -21 50 22 c85 37 88 37 80 4 -10 -43 -40
-71 -89 -83 -55 -14 -89 -14 -138 0 -54 15 -70 45 -71 135 0 68 2 78 23 95 14
11 38 19 60 18 31 0 33 -2 16 -10z m319 -105 c9 -8 16 -25 16 -36 0 -32 37
-84 75 -107 35 -21 47 -51 20 -51 -8 0 -35 7 -61 16 -48 16 -159 12 -197 -8
-49 -26 -56 26 -7 54 15 9 40 38 56 64 49 87 67 99 98 68z m370 -51 c-11 -45
-24 -63 -50 -73 -32 -13 -161 -13 -169 -1 -3 5 -18 12 -33 16 -32 7 -60 53
-37 61 8 3 41 -3 74 -15 64 -22 86 -20 156 17 55 29 67 28 59 -5z m-419 -334
c4 -5 11 -9 16 -9 6 0 8 4 5 9 -6 9 23 5 54 -6 8 -4 34 -5 58 -5 23 1 42 -3
42 -8 0 -5 6 -7 14 -4 11 4 13 0 9 -15 -4 -17 -14 -21 -49 -22 -54 -2 -61 -3
-67 -9 -3 -3 -45 -3 -94 0 -86 5 -88 6 -88 30 0 20 5 25 25 26 13 1 26 6 27
11 4 12 41 14 48 2z m-56 -105 c30 -8 83 -16 120 -16 42 0 59 -3 46 -8 -11 -5
-58 -7 -105 -7 -75 2 -85 0 -84 -15 1 -11 -5 -18 -17 -18 -16 0 -17 -4 -9 -25
6 -16 6 -25 0 -25 -18 0 -10 -22 10 -27 11 -3 20 -9 20 -14 0 -5 9 -9 19 -9
26 0 51 -10 51 -20 0 -5 -30 -24 -67 -42 -38 -18 -74 -39 -82 -46 -23 -22 -33
1 -38 81 -4 68 -2 75 16 80 17 4 19 12 17 66 -3 60 -2 61 24 61 14 0 50 -7 79
-16z m19 -564 c-1 -8 3 -25 10 -36 6 -12 9 -24 5 -28 -3 -3 11 -13 33 -21 95
-38 91 -27 33 -100 l-52 -66 -17 29 c-10 17 -23 33 -29 37 -7 4 -9 25 -5 59 4
36 1 72 -10 112 -29 103 -30 102 4 64 17 -19 29 -42 28 -50z m608 -647 c1 -16
-5 -27 -20 -33 -11 -5 -30 -16 -40 -24 -18 -15 -18 -17 -3 -34 25 -27 21 -40
-15 -58 -18 -8 -49 -39 -68 -67 -49 -73 -49 -76 0 -34 84 72 160 98 230 78
l25 -7 -22 -12 c-13 -7 -23 -10 -23 -7 0 3 -9 1 -20 -5 -11 -6 -20 -18 -20
-26 0 -8 -4 -13 -9 -10 -17 11 -87 15 -101 6 -12 -8 -11 -11 8 -16 31 -9 30
-44 -2 -44 -13 0 -42 -10 -65 -22 -34 -18 -39 -24 -28 -36 10 -13 9 -14 -10
-4 -12 7 -25 17 -28 22 -3 6 -20 10 -37 10 -21 0 -31 -6 -35 -20 -3 -11 -9
-20 -14 -20 -5 0 -6 7 -3 15 10 25 -16 17 -27 -9 -6 -13 -26 -31 -45 -40 -43
-20 -44 -20 -44 3 0 22 19 40 56 50 20 5 39 29 81 101 31 56 80 122 117 160
35 36 69 75 75 88 10 18 19 22 49 21 31 -2 37 -6 38 -26z m-578 -386 c-13 -12
-37 -46 -53 -75 -23 -43 -33 -52 -55 -52 -15 0 -33 -7 -40 -15 -7 -8 -25 -15
-41 -15 -16 0 -29 -5 -29 -12 0 -9 -3 -9 -12 0 -32 32 -99 -3 -106 -54 -3 -22
45 -324 53 -332 9 -10 -17 -43 -30 -38 -7 2 -19 -2 -26 -10 -11 -13 -15 -12
-35 9 -23 25 -86 43 -106 31 -7 -5 -9 -2 -6 8 4 10 -5 19 -30 28 -21 8 -40 13
-44 12 -5 -1 -8 3 -8 10 0 6 -3 9 -6 5 -4 -3 -13 0 -21 8 -9 9 -24 13 -39 9
-16 -4 -24 -2 -24 6 0 7 -8 10 -20 7 -13 -3 -20 0 -20 10 0 8 -4 12 -9 8 -6
-3 -13 0 -18 7 -4 7 -25 19 -46 26 -73 26 -127 13 -127 -30 0 -10 -8 -22 -17
-25 -10 -4 -24 -13 -32 -20 -10 -11 -16 -11 -27 -2 -21 17 -16 77 11 144 14
33 25 64 25 68 0 13 76 97 113 124 17 13 31 29 29 34 -1 5 4 9 10 10 25 1 56
9 84 20 46 19 59 20 234 24 171 3 166 2 400 69 47 14 87 25 89 25 2 1 -7 -9
-21 -22z"/>
<path d="M2620 4781 c-14 -3 -35 -13 -47 -21 -30 -20 -31 -81 -2 -166 l21 -62
40 4 c51 5 99 32 115 65 7 14 16 58 19 97 5 57 4 72 -7 76 -28 9 -115 13 -139
7z"/>
<path d="M463 3927 c-41 -48 -55 -87 -33 -87 6 0 10 -7 10 -15 0 -8 14 -17 35
-21 33 -6 35 -9 35 -45 0 -26 -4 -38 -12 -36 -8 1 -14 -10 -16 -28 -2 -24 4
-34 30 -52 73 -48 150 -37 210 29 15 16 31 27 36 24 6 -3 15 1 22 9 7 8 25 15
41 15 27 0 29 3 29 39 0 46 -26 71 -74 71 -16 0 -38 7 -48 16 -10 9 -35 18
-55 19 -21 0 -51 7 -66 13 -16 7 -33 12 -38 12 -6 0 -7 14 -4 34 6 28 3 36
-13 45 -33 18 -45 12 -89 -42z"/>
<path d="M345 3785 c-27 -13 -62 -25 -77 -25 -23 0 -27 -5 -33 -40 -10 -61 0
-80 44 -80 30 0 42 6 59 29 12 16 23 35 24 42 2 8 11 20 21 29 12 10 18 26 15
43 l-3 27 -50 -25z"/>
<path d="M600 3257 c0 -17 -7 -18 -71 -11 -49 5 -70 4 -66 -3 8 -12 -17 -36
-26 -27 -3 4 -9 -5 -13 -20 -4 -17 0 -36 15 -58 11 -18 34 -56 51 -84 17 -28
39 -59 50 -69 19 -17 21 -17 38 -2 10 10 23 17 27 17 17 0 95 84 95 102 0 10
5 18 10 18 6 0 10 7 10 15 0 9 7 26 16 40 14 22 14 24 -3 33 -10 6 -36 14 -58
18 -21 4 -47 16 -57 28 -16 19 -17 19 -18 3z"/>
<path d="M3566 954 c-48 -48 -77 -124 -71 -184 7 -70 29 -105 78 -121 33 -11
43 -11 66 2 23 13 26 21 26 73 1 31 -3 60 -7 62 -4 3 -8 16 -8 30 0 13 -4 24
-10 24 -5 0 -10 17 -10 38 -1 20 -9 52 -18 70 l-18 33 -28 -27z"/>
<path d="M3205 383 c-11 -8 -35 -22 -53 -29 -18 -8 -30 -19 -27 -24 3 -5 10
-52 15 -105 5 -54 11 -99 14 -102 7 -8 67 31 98 64 l27 28 -21 85 c-11 47 -23
88 -27 92 -3 4 -15 0 -26 -9z"/>
<path d="M3741 357 c-6 -8 -22 -45 -37 -83 -23 -62 -25 -77 -19 -148 9 -108
17 -126 55 -126 l30 0 0 185 c0 102 -4 185 -9 185 -5 0 -14 -6 -20 -13z"/>
</g>
</svg>
